<?xml version="1.0"?>
<svg xmlns="http://www.w3.org/2000/svg" id="Layer_1" height="512px" viewBox="0 0 512 512" width="512px" data-name="Layer 1" class=""><g><path d="m108.344 424.526a6.05 6.05 0 0 0 -1.085-.1 5.9 5.9 0 1 0 1.085.1z" data-original="#000000" class="active-path" data-old_color="#000000" fill="#c89765"/><path d="m145.9 44.5a202.782 202.782 0 0 0 36.01 61.784l10.668-9.067a188.785 188.785 0 0 1 -33.531-57.531l-5.971-16.3a7 7 0 0 0 -13.146 4.814z" data-original="#000000" class="active-path" data-old_color="#000000" fill="#c89765"/><path d="m227.841 162a127.592 127.592 0 0 0 -17.135 14.211l16.443 19.334a40.113 40.113 0 0 1 .339 51.555l179.93 212.145 19.068-16.172a30.426 30.426 0 0 0 10.709-20.8 30.84 30.84 0 0 0 -7.182-22.386z" data-original="#000000" class="active-path" data-old_color="#000000" fill="#c89765"/><path d="m237.938 107.082a5.884 5.884 0 0 0 -5.922 9.119 5.884 5.884 0 1 0 5.922-9.119z" data-original="#000000" class="active-path" data-old_color="#000000" fill="#c89765"/><path d="m275.589 124.7a26.141 26.141 0 0 0 -16-41.569 25.973 25.973 0 0 0 -4.725-.433 26.366 26.366 0 0 0 -3.508.235c-78.87 10.546-148.903 98.567-170.303 214.042-12.053 65.062-6.853 129.065 14.647 180.225a26.133 26.133 0 0 0 48.182-20.255c-17.342-41.261-21.512-96.094-11.44-150.445 8.595-46.372 26.936-89.452 51.645-121.306 22.625-29.165 48.976-47.084 74.2-50.458a25.96 25.96 0 0 0 17.302-10.036zm-148.766 309.237a19.883 19.883 0 1 1 -3.164-14.888 19.918 19.918 0 0 1 3.164 14.888zm129.594-317.445a19.885 19.885 0 1 1 -15.929-23.176 19.918 19.918 0 0 1 15.929 23.176z" data-original="#000000" class="active-path" data-old_color="#000000" fill="#c89765"/></g> </svg>
