<?xml version="1.0"?>
<svg xmlns="http://www.w3.org/2000/svg" enable-background="new 0 0 100 100" height="512px" viewBox="0 0 100 100" width="512px" class=""><g transform="matrix(1 -2.44929e-16 2.44929e-16 1 -2.84217e-14 2.13163e-14)"><path d="m38.7209015 6.2453303 8.6859016 50.5078087s6.759594 4.6838455 8.0631371 9.2886696c.0700531.247467.1558113.517952.2553825.8082504 1.7531738 5.1115723 8.7511864 14.3349762 8.7511864 14.3349762v-2.3287811l-3.243557-13.6685867-20.9970474-60.1876674z" fill="#c89765" data-original="#c89765" class="" style="fill:#c89765" data-old_color="#c89765"/><path d="m39.3857918 5.698791 15.6730537 46.8254972 2.4325218 1.7480926-17.2554626-49.2723808z" fill="#c89765" data-original="#c89765" class=""/><path d="m80.579155 79.2944794c-3.046936-6.1341476-9.0499802-9.3425446-13.4084854-7.1834564-1.1073227.5497818-1.9998474 1.3946457-2.6689682 2.4464188l-3.2687569-9.3697968-5.5063324 1.6619339c1.5769196 4.6015625 6.6272697 14.1874695 7.6162338 16.0486374.2766113 1.4056015.7488594 2.8405228 1.446804 4.245636 3.046936 6.13414 9.0499802 9.3424149 13.4084244 7.1834488 4.3585129-2.1691819 5.4279557-8.8986741 2.3810807-15.0328217zm-3.2588272 11.9454956c-2.9662094 1.4729691-7.2136917-1.0392151-9.4837418-5.6094971-2.2700577-4.5804977-1.7151642-9.4838028 1.2510376-10.9466782 2.9662094-1.4730988 7.2137527 1.0392075 9.4838028 5.6094894 2.2700577 4.5805055 1.7050095 9.4737092-1.2510986 10.9466859z" fill="#c89765" data-original="#c89765" class="" style="fill:#c89765" data-old_color="#c89765"/><g fill="#c89765"><path d="m77.2565918 8.1886101c-1.8230057 5.4277601-6.1821976 10.114151-11.6830063 12.5715961-2.7430916 1.2364655-5.6898499 1.9166107-8.6054077 2.2689991-2.9229088.3536968-5.8317719.3795719-8.6850243.3227901-5.6947479-.1280041-11.2161446-.6006889-16.5549088.2389545-2.6449776.413681-5.2564659 1.1879177-7.6773205 2.4067421-2.4217033 1.2141838-4.636404 2.9184322-6.3660049 5.196579 1.012146-2.685358 3.0168381-5.0169544 5.3961334-6.7619114 2.3932476-1.7539101 5.1617546-2.9716225 8.0408516-3.7246227 2.8718433-.7503223 5.8153706-1.045536 8.7039089-1.1530895 2.893177-.103632 5.7427711-.0051613 8.5418587.0524693 5.570076.1269608 11.0714111.1159172 16.1282616-1.5780735 5.0274048-1.6764774 9.542862-5.143261 12.7606583-9.8404331z" data-original="#c89765" class="active-path" style="fill:#c89765" data-old_color="#c89765"/><path d="m77.2565918 14.3726559c-1.8230057 5.4277611-6.1821976 10.114151-11.6830063 12.5715961-2.7430916 1.2364655-5.6898499 1.9166107-8.6054077 2.2689991-2.9229088.3536968-5.8317719.3795719-8.6850243.3227901-5.6947479-.1280041-11.2161446-.6006889-16.5549088.2389565-2.6449776.4136791-5.2564659 1.1879158-7.6773205 2.4067383-2.4217033 1.2141838-4.636404 2.9184341-6.3660049 5.1965828 1.012146-2.68536 3.0168381-5.0169563 5.3961334-6.7619133 2.3932476-1.7539101 5.1617546-2.9716225 8.0408516-3.7246227 2.8718433-.7503223 5.8153706-1.045536 8.7039089-1.1530895 2.893177-.103632 5.7427711-.0051613 8.5418587.0524693 5.570076.1269608 11.0714111.1159172 16.1282616-1.5780735 5.0274048-1.6764775 9.542862-5.1432611 12.7606583-9.8404332z" data-original="#344D5B" class="active-path" style="fill:#c89765" data-old_color="#c89765"/><path d="m77.2565918 21.1038227c-1.8230057 5.4277592-6.1821976 10.114151-11.6830063 12.5715961-2.7430916 1.2364655-5.6898499 1.9166107-8.6054077 2.2689972-2.9229088.3536987-5.8317719.3795738-8.6850243.3227921-5.6947479-.128006-11.2161446-.6006889-16.5549088.2389565-2.6449776.4136772-5.2564659 1.1879158-7.6773205 2.4067383-2.4217033 1.2141838-4.636404 2.9184341-6.3660049 5.196579 1.012146-2.6853561 3.0168381-5.0169525 5.3961334-6.7619095 2.3932476-1.7539101 5.1617546-2.9716225 8.0408516-3.7246246 2.8718433-.7503204 5.8153706-1.045536 8.7039089-1.1530876 2.893177-.1036339 5.7427711-.0051613 8.5418587.0524673 5.570076.1269608 11.0714111.1159172 16.1282616-1.5780716 5.0274048-1.6764794 9.542862-5.1432629 12.7606583-9.8404332z" data-original="#c89765" class="active-path" style="fill:#c89765" data-old_color="#c89765"/></g><path d="m64.4765091 6.2453303-8.6858978 50.5078087s-6.759594 4.6838455-8.0631371 9.2886696c-.0700531.2474594-.1558075.5179367-.2553749.8082275-1.7531624 5.111557-8.4100723 14.0665741-8.4100723 14.0665741l-.3411255-1.2636642 3.1625595-14.4652939 21.0780487-60.1876521z" fill="#c89765" data-original="#c89765" class="" style="fill:#c89765" data-old_color="#c89765"/><path d="m63.8116188 5.698791-15.6730499 46.8254972-2.4325218 1.7480926 17.2554626-49.2723808z" fill="#ededed" data-original="#c89765" class=""/><path d="m51.7528496 51.4662743c-.9675484 0-1.7518311.7843437-1.7518311 1.7518616 0 .9675446.7842827 1.7518921 1.7518311 1.7518921.9675446 0 1.7518921-.7843475 1.7518921-1.7518921 0-.9675179-.7843476-1.7518616-1.7518921-1.7518616z" fill="#c89765" data-original="#c89765" class="" style="fill:#c89765" data-old_color="#c89765"/><path d="m47.4707565 66.8495789-5.5872955-1.6619339-3.2979622 9.4170914c-.6721344-1.0729599-1.572422-1.9360504-2.6956863-2.4937134-4.3585129-2.1590881-10.3615551 1.0493088-13.408493 7.1834564-3.046875 6.1341476-1.9774284 12.8636398 2.3810825 15.0328217 4.358448 2.1589661 10.3614941-1.0493088 13.4084301-7.1834488.6498451-1.3083115 1.1017723-2.6422424 1.3857765-3.9547348l.0269089.0298004c0-.0000001 6.0361747-11.2598725 7.787239-16.369339zm-12.2468605 18.780899c-2.2700539 4.570282-6.51754 7.0824661-9.4837456 5.6094971-2.9561081-1.4729767-3.5211582-6.3661804-1.2511044-10.9466858 2.2700539-4.570282 6.5175991-7.0825882 9.4838047-5.6094894 2.9662095 1.4628753 3.5210992 6.3661804 1.2510453 10.9466781z" fill="#c89765" data-original="#c89765" class="" style="fill:#c89765" data-old_color="#c89765"/></g> </svg>
